<mxfile host="app.diagrams.net" agent="Mozilla/5.0 (Macintosh; Intel Mac OS X 10.15; rv:128.0) Gecko/20100101 Firefox/128.0" version="26.0.6">
  <diagram name="Страница — 1" id="z96_qJg9Ba0U_l2eJsHz">
    <mxGraphModel dx="810" dy="502" grid="1" gridSize="10" guides="1" tooltips="1" connect="1" arrows="1" fold="1" page="1" pageScale="1" pageWidth="827" pageHeight="1169" math="0" shadow="0">
      <root>
        <mxCell id="0" />
        <mxCell id="1" parent="0" />
        <mxCell id="acskBeSU3LfLO-v4SMMu-5" style="edgeStyle=orthogonalEdgeStyle;rounded=0;orthogonalLoop=1;jettySize=auto;html=1;entryX=0;entryY=0.5;entryDx=0;entryDy=0;" edge="1" parent="1" source="acskBeSU3LfLO-v4SMMu-1" target="acskBeSU3LfLO-v4SMMu-3">
          <mxGeometry relative="1" as="geometry" />
        </mxCell>
        <mxCell id="acskBeSU3LfLO-v4SMMu-1" value="Actor" style="shape=umlActor;verticalLabelPosition=bottom;verticalAlign=top;html=1;outlineConnect=0;" vertex="1" parent="1">
          <mxGeometry x="70" y="160" width="30" height="60" as="geometry" />
        </mxCell>
        <mxCell id="acskBeSU3LfLO-v4SMMu-2" value="Landing" style="rounded=1;whiteSpace=wrap;html=1;fontSize=11;" vertex="1" parent="1">
          <mxGeometry x="470" y="150" width="120" height="60" as="geometry" />
        </mxCell>
        <mxCell id="acskBeSU3LfLO-v4SMMu-4" style="edgeStyle=orthogonalEdgeStyle;rounded=0;orthogonalLoop=1;jettySize=auto;html=1;entryX=0;entryY=0.5;entryDx=0;entryDy=0;fontSize=10;startArrow=classic;startFill=1;" edge="1" parent="1" source="acskBeSU3LfLO-v4SMMu-3" target="acskBeSU3LfLO-v4SMMu-2">
          <mxGeometry relative="1" as="geometry" />
        </mxCell>
        <mxCell id="acskBeSU3LfLO-v4SMMu-3" value="flow domain (url)" style="rounded=1;whiteSpace=wrap;html=1;" vertex="1" parent="1">
          <mxGeometry x="210" y="150" width="120" height="60" as="geometry" />
        </mxCell>
        <mxCell id="acskBeSU3LfLO-v4SMMu-8" style="edgeStyle=orthogonalEdgeStyle;rounded=0;orthogonalLoop=1;jettySize=auto;html=1;entryX=0;entryY=0.5;entryDx=0;entryDy=0;startArrow=classic;startFill=1;" edge="1" parent="1" source="acskBeSU3LfLO-v4SMMu-6" target="acskBeSU3LfLO-v4SMMu-7">
          <mxGeometry relative="1" as="geometry" />
        </mxCell>
        <mxCell id="acskBeSU3LfLO-v4SMMu-6" value="parking url" style="rounded=1;whiteSpace=wrap;html=1;fontSize=11;" vertex="1" parent="1">
          <mxGeometry x="150" y="330" width="120" height="60" as="geometry" />
        </mxCell>
        <mxCell id="acskBeSU3LfLO-v4SMMu-7" value="parking server" style="rounded=1;whiteSpace=wrap;html=1;fontSize=11;" vertex="1" parent="1">
          <mxGeometry x="400" y="320" width="120" height="60" as="geometry" />
        </mxCell>
      </root>
    </mxGraphModel>
  </diagram>
</mxfile>
